<svg width="242" height="76" viewBox="0 0 242 76" fill="none" xmlns="http://www.w3.org/2000/svg">
<path d="M17.4026 75.4398L62.8595 49.9944L47 41.8654L17.0634 58.9281L17.4026 75.4398Z" fill="#3F4478"/>
<path d="M62.5117 33.0061L47.0013 41.8654L62.8608 49.9944L62.5117 33.0061Z" fill="#8E7DBE"/>
<path d="M31.7086 33.5669L47.0013 41.8654L62.5117 33.0061L46.6522 24.8776L31.7086 33.5669Z" fill="#41EAD4"/>
<path d="M46.3025 0L0.844971 25.446L16.7045 33.575L46.6417 16.5117L46.3025 0Z" fill="#3F4478"/>
<path d="M1.19405 42.4337L16.7045 33.5756L0.844971 25.446L1.19405 42.4337Z" fill="#8E7DBE"/>
<path d="M31.9966 41.8736L16.7045 33.5756L1.19403 42.4338L17.0535 50.5634L31.9966 41.8736Z" fill="#41EAD4"/>
<path d="M86.9652 48.863C88.5163 48.863 89.6039 48.8266 90.2255 48.7538C90.8463 48.6804 91.2925 48.5341 91.5639 48.3137C91.9126 47.9484 92.135 47.4089 92.2331 46.6952C92.3311 45.9814 92.3788 45.1858 92.3788 44.3082V42.5518C92.3788 41.5644 92.3111 40.7609 92.175 40.1382C92.0397 39.5161 91.7862 39.0318 91.4181 38.6841C91.0487 38.337 90.5452 38.0997 89.9044 37.9703C89.2635 37.8423 88.4389 37.7786 87.43 37.7786C84.6358 37.7786 82.5205 37.0102 81.0854 35.4748C79.649 33.9381 78.9315 31.4881 78.9315 28.1209V26.8599C78.9315 24.6289 79.2029 22.8634 79.7471 21.5646C80.2906 20.2652 81.0571 19.2778 82.0468 18.6011C83.0364 17.9238 84.229 17.4857 85.6254 17.2841C87.0218 17.0833 88.575 16.9819 90.2835 16.9819H97.1529V22.3044H90.981C89.6613 22.3044 88.6426 22.359 87.9251 22.4689C87.2083 22.5787 86.6744 22.7802 86.3243 23.0727C85.8968 23.4758 85.6351 23.9782 85.5384 24.5821C85.4417 25.186 85.3934 26.0733 85.3934 27.2434C85.3934 28.3771 85.4307 29.3008 85.5094 30.0139C85.5881 30.7276 85.7905 31.2756 86.1206 31.6604C86.4507 32.0439 86.9555 32.3007 87.6337 32.4287C88.3118 32.5575 89.2538 32.6205 90.4568 32.6205C91.5818 32.6205 92.6488 32.7941 93.6578 33.1425C94.6667 33.4903 95.5493 34.0473 96.3062 34.8157C97.0631 35.584 97.6639 36.5812 98.1107 37.8072C98.5568 39.0331 98.7806 40.523 98.7806 42.2788V44.8581C98.7806 47.0169 98.5189 48.7181 97.9947 49.9616C97.4705 51.2045 96.733 52.1386 95.782 52.7594C94.8304 53.3821 93.7158 53.7747 92.4347 53.9392C91.1536 54.1036 89.7566 54.1856 88.2428 54.1856H78.6414V48.863H86.9652Z" fill="white"/>
<path d="M105.044 39.453C105.044 36.4921 105.258 34.1819 105.687 32.5191C106.115 30.8569 106.708 29.6329 107.467 28.8477C108.226 28.0618 109.139 27.5872 110.209 27.4221C111.28 27.257 112.475 27.1758 113.798 27.1758H122.492V32.1635H116.365C114.809 32.1635 113.749 32.1999 113.184 32.2727C112.62 32.3462 112.241 32.5295 112.046 32.8213C111.93 33.0404 111.822 33.461 111.726 34.0818C111.63 34.7019 111.551 35.4065 111.493 36.1924C111.434 36.9783 111.385 37.7727 111.347 38.5768C111.309 39.3809 111.289 40.0751 111.289 40.6589C111.289 41.2432 111.308 41.9388 111.347 42.7416C111.386 43.5444 111.434 44.34 111.493 45.1259C111.551 45.9118 111.629 46.6152 111.726 47.236C111.823 47.8561 111.93 48.2767 112.046 48.4957C112.241 48.7889 112.62 48.9716 113.184 49.0444C113.749 49.1172 114.809 49.1536 116.365 49.1536H122.493V54.142H113.798C112.474 54.142 111.278 54.0594 110.209 53.8956C109.139 53.7311 108.225 53.2566 107.466 52.4701C106.707 51.6835 106.114 50.4614 105.687 48.798C105.258 47.1365 105.044 44.8237 105.044 41.8647V39.453Z" fill="white"/>
<path d="M134.83 16.5431V28.6045C135.489 27.8739 136.325 27.454 137.335 27.3435C138.345 27.2329 139.374 27.179 140.424 27.179H140.89C141.977 27.179 142.958 27.2154 143.832 27.2882C144.706 27.3617 145.444 27.6087 146.047 28.0286C146.648 28.4498 147.104 29.1168 147.416 30.0294C147.727 30.9421 147.883 32.2597 147.883 33.9778V54.153H141.763V36.1164C141.763 35.166 141.743 34.4256 141.705 33.8952C141.665 33.3661 141.56 32.9728 141.385 32.7167C141.211 32.4612 140.948 32.3052 140.598 32.2506C140.248 32.196 139.763 32.168 139.143 32.168H137.451C136.829 32.168 136.344 32.196 135.995 32.2506C135.646 32.3052 135.383 32.4612 135.208 32.7167C135.034 32.9728 134.926 33.3661 134.888 33.8952C134.848 34.4256 134.83 35.166 134.83 36.1164V54.153H128.711V16.5431H134.83Z" fill="white"/>
<path d="M170.852 53.1975C169.868 53.7507 168.718 54.0341 167.438 54.0341C166.182 54.0341 165.035 53.7507 164.035 53.2001C163.028 52.6456 162.178 51.7713 161.51 50.596C160.882 49.491 160.399 48.0518 160.072 46.3188C159.756 44.6332 159.594 42.5654 159.594 40.1733V30.346C159.594 27.9357 159.748 25.8711 160.06 24.2161C160.376 22.5163 160.859 21.1031 161.486 20.024C162.159 18.8819 163.008 18.0375 164.012 17.5175C165 17.004 166.134 16.7433 167.383 16.7433C168.628 16.7433 169.762 17.004 170.749 17.5175C171.753 18.0388 172.602 18.8819 173.275 20.024C173.903 21.1031 174.385 22.5124 174.705 24.22C175.013 25.875 175.172 27.9357 175.172 30.346V40.1733C175.172 42.5576 175.018 44.6222 174.722 46.311C174.414 48.0407 173.947 49.4838 173.327 50.5882C172.671 51.7635 171.84 52.6371 170.853 53.1949L170.852 53.1975ZM180.255 22.1536C179.599 19.5944 178.662 17.5194 177.452 15.9275C176.24 14.3395 174.781 13.1934 173.077 12.4907C171.374 11.7835 169.474 11.4338 167.383 11.4338C165.308 11.4338 163.419 11.7835 161.716 12.4907C160.008 13.1934 158.551 14.3395 157.341 15.9275C156.128 17.5194 155.195 19.595 154.536 22.1536C153.877 24.7121 153.548 27.8375 153.548 31.5317V39.0533C153.548 42.7429 153.884 45.8748 154.552 48.445C155.22 51.016 156.165 53.1058 157.386 54.716C158.606 56.3268 160.069 57.4949 161.772 58.2197C163.479 58.9451 165.368 59.3098 167.439 59.3098C169.533 59.3098 171.426 58.9451 173.122 58.2197C174.818 57.4949 176.263 56.3268 177.469 54.716C178.67 53.1058 179.599 51.0147 180.255 48.445C180.914 45.8748 181.246 42.7429 181.246 39.0533V31.5317C181.246 27.8382 180.915 24.7128 180.255 22.1536Z" fill="#41EAD4"/>
<path d="M186.916 16.5684H193.148V44.1996C193.148 46.3929 193.439 47.8366 194.022 48.5302C194.333 48.8591 194.73 49.0515 195.216 49.1061C195.701 49.1614 196.448 49.1887 197.459 49.1887V54.1777H196.351C194.837 54.1777 193.488 54.0958 192.304 53.9314C191.12 53.7669 190.129 53.2547 189.333 52.396C188.538 51.5379 187.936 50.2027 187.528 48.3937C187.121 46.5846 186.917 44.0534 186.917 40.7999L186.916 16.5684Z" fill="white"/>
<path d="M207.67 46.3038C207.67 46.9987 207.689 47.5467 207.728 47.9484C207.766 48.3508 207.903 48.6426 208.135 48.8253C208.367 49.008 208.716 49.1185 209.182 49.1536C209.648 49.1893 210.307 49.2082 211.159 49.2082C211.935 49.2082 212.526 49.1809 212.934 49.1263C213.342 49.0717 213.652 48.9345 213.865 48.7154C214.078 48.497 214.204 48.1493 214.244 47.6747C214.281 47.2002 214.302 46.5424 214.302 45.7019V41.1516C212.673 41.1893 211.422 41.2803 210.55 41.4253C209.677 41.5709 208.988 41.7912 208.485 42.0837C208.136 42.2671 207.912 42.5407 207.816 42.9054C207.718 43.2714 207.67 43.8011 207.67 44.4954V46.3038ZM201.562 44.3309C201.562 43.3812 201.649 42.4666 201.823 41.591C201.997 40.7148 202.501 39.9282 203.336 39.234C204.169 38.5404 205.439 37.9826 207.146 37.5621C208.853 37.1415 211.237 36.8958 214.302 36.8217C214.302 35.5437 214.244 34.6304 214.127 34.0818C214.011 33.5331 213.816 33.0768 213.545 32.7108C213.35 32.419 213.079 32.2448 212.731 32.1908C212.382 32.1375 211.877 32.1089 211.217 32.1089H205.052V27.1758H211.219C212.615 27.1758 213.884 27.2486 215.029 27.3948C216.174 27.5404 217.142 28.0072 217.938 28.793C218.731 29.5796 219.342 30.8303 219.77 32.547C220.196 34.2651 220.409 36.7125 220.409 39.8905V54.1413H215L214.534 52.6066C213.758 53.3379 212.953 53.7766 212.119 53.9216C211.284 54.0685 210.19 54.1407 208.832 54.1407C207.785 54.1407 206.816 54.0308 205.923 53.8111C205.03 53.592 204.265 53.2092 203.626 52.6605C202.987 52.1119 202.483 51.3559 202.115 50.3873C201.745 49.4194 201.562 48.1863 201.562 46.6873V44.3309Z" fill="white"/>
<path d="M232.89 27.1021L233.355 28.9105C234.054 28.0336 234.926 27.5123 235.974 27.3484C237.022 27.184 238.05 27.1021 239.059 27.1021H241.155V32.1444C240.495 32.0716 239.913 32.0261 239.408 32.0079C238.904 31.9897 238.439 31.9806 238.012 31.9806C236.654 31.9806 235.664 32.2185 235.044 32.6931C234.306 33.2053 233.88 33.9996 233.763 35.0774C233.647 36.1565 233.589 37.4436 233.589 38.9419V54.0683H227.476V27.1021H232.89Z" fill="white"/>
</svg>