<svg xmlns="http://www.w3.org/2000/svg" viewBox="0 0 150 150" width="150" height="150" style="width: 100%; height: 100%; transform: translate3d(0px, 0px, 0px);" preserveAspectRatio="xMidYMid meet"><defs><clipPath id="__lottie_element_25"><rect width="150" height="150" x="0" y="0"></rect></clipPath></defs><g clip-path="url(#__lottie_element_25)"><g style="display: block;" transform="matrix(0.9999994039535522,0,0,0.9999994039535522,75,75)" opacity="0.1"><g opacity="1" transform="matrix(1,0,0,1,0,0)"><path fill="rgb(6,211,215)" fill-opacity="1" d=" M0,-75 C41.39250183105469,-75 75,-41.39250183105469 75,0 C75,41.39250183105469 41.39250183105469,75 0,75 C-41.39250183105469,75 -75,41.39250183105469 -75,0 C-75,-41.39250183105469 -41.39250183105469,-75 0,-75z"></path></g></g><g style="display: block;" transform="matrix(1,0,0,1,49.5,27.860000610351562)" opacity="1"><g opacity="1" transform="matrix(1,0,0,1,0,0)"><path stroke-linecap="round" stroke-linejoin="round" fill-opacity="0" stroke="rgb(46,57,88)" stroke-opacity="1" stroke-width="9" d=" M0,41.959999084472656 C0,41.959999084472656 22.40999984741211,64.3499984741211 22.40999984741211,64.3499984741211 C22.40999984741211,64.3499984741211 83.62999725341797,0 83.62999725341797,0"></path></g></g><g style="display: block;" transform="matrix(1,0,0,1,49.5,27.860000610351562)" opacity="1"><g opacity="1" transform="matrix(1,0,0,1,0,0)"><path stroke-linecap="round" stroke-linejoin="round" fill-opacity="0" stroke="rgb(3,154,157)" stroke-opacity="1" stroke-width="10" d=" M0,41.959999084472656 C0,41.959999084472656 22.40999984741211,64.3499984741211 22.40999984741211,64.3499984741211 C22.40999984741211,64.3499984741211 83.62999725341797,0 83.62999725341797,0"></path></g></g><g style="display: block;" transform="matrix(1,0,0,1,49.5,27.860000610351562)" opacity="1"><g opacity="1" transform="matrix(1,0,0,1,0,0)"><path stroke-linecap="round" stroke-linejoin="round" fill-opacity="0" stroke="rgb(6,211,215)" stroke-opacity="1" stroke-width="10" d=" M0,41.959999084472656 C0,41.959999084472656 22.40999984741211,64.3499984741211 22.40999984741211,64.3499984741211 C22.40999984741211,64.3499984741211 83.62999725341797,0 83.62999725341797,0"></path></g></g><g style="display: block;" transform="matrix(1,0,0,1,75,75)" opacity="1"><g opacity="1" transform="matrix(1,0,0,1,0,0)"><path stroke-linecap="round" stroke-linejoin="round" fill-opacity="0" stroke="rgb(46,57,88)" stroke-opacity="1" stroke-width="9" d=" M49.72800064086914,-5.236999988555908 C49.90800094604492,-3.5160000324249268 50,-1.7690000534057617 50,0 C50,27.594999313354492 27.594999313354492,50 0,50 C-27.594999313354492,50 -50,27.594999313354492 -50,0 C-50,-27.594999313354492 -27.594999313354492,-50 0,-50 C0,-50 0,-50 0,-50 C6.864999771118164,-50 13.40999984741211,-48.612998962402344 19.367000579833984,-46.10499954223633"></path></g></g><g style="display: block;" transform="matrix(1,0,0,1,75,75)" opacity="1"><g opacity="1" transform="matrix(1,0,0,1,0,0)"><path stroke-linecap="round" stroke-linejoin="round" fill-opacity="0" stroke="rgb(3,154,157)" stroke-opacity="1" stroke-width="9" d=" M49.72800064086914,-5.236999988555908 C49.90800094604492,-3.5160000324249268 50,-1.7690000534057617 50,0 C50,27.594999313354492 27.594999313354492,50 0,50 C-27.594999313354492,50 -50,27.594999313354492 -50,0 C-50,-27.594999313354492 -27.594999313354492,-50 0,-50 C0,-50 0,-50 0,-50 C6.864999771118164,-50 13.40999984741211,-48.612998962402344 19.367000579833984,-46.10499954223633"></path></g></g><g style="display: block;" transform="matrix(1,0,0,1,75,75)" opacity="1"><g opacity="1" transform="matrix(1,0,0,1,0,0)"><path stroke-linecap="round" stroke-linejoin="round" fill-opacity="0" stroke="rgb(6,211,215)" stroke-opacity="1" stroke-width="10" d=" M49.72800064086914,-5.236999988555908 C49.90800094604492,-3.5160000324249268 50,-1.7690000534057617 50,0 C50,27.594999313354492 27.594999313354492,50 0,50 C-27.594999313354492,50 -50,27.594999313354492 -50,0 C-50,-27.594999313354492 -27.594999313354492,-50 0,-50 C0,-50 0,-50 0,-50 C6.864999771118164,-50 13.40999984741211,-48.612998962402344 19.367000579833984,-46.10499954223633"></path></g></g></g></svg>