<?xml version="1.0" encoding="UTF-8"?> <svg xmlns="http://www.w3.org/2000/svg" width="63" height="55" viewBox="0 0 63 55" fill="none"><path d="M39.5634 31.1701C40.2009 34.2577 41.6892 36.9362 43.6236 39.4135C42.1386 41.0563 40.3522 42.2258 38.3938 43.1658C34.9407 44.8206 31.3069 45.111 27.5644 44.6617C24.6433 44.3114 22.1997 42.8699 19.8323 41.2728C19.6148 41.1281 19.4853 40.7157 19.482 40.4263C19.4581 38.5409 19.1665 36.7121 18.4637 34.9572C18.3754 34.7436 18.2522 34.5462 18.0992 34.373C18.888 42.2302 15.9712 48.0257 8.58512 51.4875C9.23789 52.1011 9.81341 52.6397 10.39 53.1717C10.8687 53.6123 11.0994 54.1508 11.119 54.8917H10.5684C8.08466 54.8917 5.60087 54.8797 3.11709 54.9091C2.44038 54.9178 2.00085 54.6393 1.73866 54.0627C0.943365 52.3143 0.0991138 50.5464 0.0153417 48.6088C-0.0575509 46.9377 0.14481 45.2514 0.296035 43.5781C0.318881 43.3203 0.678993 43.0124 0.956421 42.8731C2.07157 42.3128 3.215 41.8124 4.34756 41.2869C5.29298 40.8517 6.00668 40.1326 6.64422 39.3286C7.02717 38.8466 7.40578 38.3614 7.75175 37.8512C7.86816 37.6793 7.96934 37.3986 7.9095 37.2169C6.82155 33.6375 7.90189 30.5162 9.88957 27.5722C10.9645 25.9795 12.1949 24.5488 13.915 23.6088C15.5262 22.7265 17.2757 22.4317 19.0708 22.6297C21.0661 22.8472 23.0461 23.2215 25.0316 23.5294C25.122 23.5534 25.2104 23.5844 25.296 23.6219L23.5945 27.4602L23.7033 27.557C23.8182 27.4803 23.9273 27.3952 24.0297 27.3024C26.5167 24.6663 28.5294 21.6886 30.367 18.576C31.4147 16.8026 32.4449 15.0162 33.8973 13.5094C35.6707 11.6697 37.7422 11.1942 40.1552 11.8894C40.7144 12.0515 41.3019 12.1125 41.8764 12.2158C41.8938 12.1669 41.9101 12.1179 41.9264 12.07L39.5329 10.3511C40.2945 9.52096 41.0332 8.73002 41.7621 7.93255C43.8463 5.63416 46.2511 3.6485 48.9023 2.03695C49.8206 1.48319 50.9422 1.22317 52.0041 0.966413C52.9288 0.742296 53.6055 1.2928 54.0712 2.05436C54.8697 3.36752 55.5943 4.72963 56.4473 6.00471C56.8824 6.65748 57.5113 7.17643 58.0792 7.72258C58.497 8.12186 58.9952 8.43845 59.4065 8.84425C60.1681 9.59385 60.1594 10.5056 59.4609 11.3139C59.1432 11.6795 58.8538 12.0689 58.4991 12.5161C58.8723 12.6249 59.1758 12.7152 59.4783 12.8131C60.0593 13.0024 60.3073 13.3636 60.1202 13.9272C59.8395 14.7758 60.0984 15.4655 60.5325 16.1825C61.194 17.278 61.7847 18.4149 62.4908 19.6748L58.3806 19.2244L58.3349 19.381L61.4899 20.84C60.823 22.7744 60.6391 23.7492 58.1793 23.9047C57.6353 23.9396 57.0913 23.9776 56.5539 24.044C55.7586 24.1408 55.2059 23.8264 54.7805 23.1584C53.9102 21.7908 52.7493 20.7138 51.3763 19.8608C51.2839 19.8032 51.187 19.752 51.0902 19.7052C51.0456 19.6824 50.9945 19.6715 50.7714 19.5965C51.4547 20.5408 52.0389 21.3655 52.6395 22.1792C54.1728 24.2446 55.5417 26.4272 56.7334 28.7069C57.9876 31.1544 58.9487 33.7413 59.5969 36.414C60.39 39.5908 61.2049 42.7654 61.8707 45.9705C62.4256 48.6371 62.0502 51.2743 61.1091 53.8233C60.7556 54.7764 60.5554 54.8917 59.5392 54.8917H51.6483C50.8541 54.8917 50.7323 54.7579 50.568 53.9963C50.4309 53.3642 50.2166 52.7484 50.0142 52.0456C50.3754 51.9444 50.7279 51.8085 51.0935 51.753C51.855 51.6442 51.9736 51.5354 52.0302 50.7673C52.1438 49.2016 51.7588 47.6401 50.9303 46.3067C50.4951 45.5799 49.9718 44.9022 49.479 44.2091C48.6086 42.9885 48.2409 41.6525 48.4672 40.1554C48.6108 39.2046 48.3584 38.7716 47.4488 38.4463C45.5417 37.7652 43.7977 36.8143 42.4921 35.2401C41.723 34.3142 41.1061 33.2622 40.425 32.2602C40.1683 31.8805 39.9376 31.4823 39.6961 31.0928L39.5634 31.1701Z" fill="url(#paint0_linear_2_74)"></path><path d="M36.9121 45.939C37.6736 45.5299 38.4178 45.1317 39.1598 44.7226C40.189 44.1547 41.2399 43.6205 42.2321 42.9939C42.9469 42.5424 43.5845 41.9679 44.2514 41.4403C44.8182 40.9921 45.1489 40.9964 45.6853 41.4631C46.3479 42.0397 46.7983 42.7339 46.9713 43.6097C47.0274 43.8374 47.137 44.0485 47.2911 44.2254C47.7002 44.7248 47.7894 45.2742 47.5544 45.8574C47.0938 46.9968 46.6162 48.129 46.1216 49.2539C45.4285 50.8249 44.6996 52.3807 44.0077 53.9528C43.7172 54.6121 43.2744 54.9102 42.5346 54.8993C40.5589 54.8699 38.5832 54.8852 36.6074 54.9058C36.2397 54.9058 36.0983 54.7862 36.0461 54.4315C35.9373 53.7189 35.7915 53.0117 35.6522 52.2556C36.1625 52.1468 36.6314 52.0228 37.1101 51.9379C37.4267 51.8824 37.554 51.7203 37.6149 51.4092C37.8999 49.9426 37.6736 48.525 37.2646 47.1183C37.1579 46.7386 37.0415 46.36 36.9121 45.939Z" fill="url(#paint1_linear_2_74)"></path><path d="M19.0839 43.2365C20.2491 43.8153 21.3501 44.4028 22.4848 44.913C23.3225 45.2895 24.1994 45.5832 25.0709 45.8802C25.6029 46.0608 25.9848 46.3154 26.1316 46.9149C26.4678 48.2835 26.8562 49.6402 27.2196 51.0034C27.3904 51.6485 27.7015 52.1348 28.3739 52.3949C29.353 52.7713 29.6957 53.5514 29.3889 54.4848C29.3019 54.7514 29.1801 54.9004 28.8559 54.8993C26.482 54.8884 24.108 54.8993 21.7341 54.8993C21.0509 54.8993 20.5472 54.5175 20.2045 53.9942C19.0545 52.2393 17.9415 50.4594 16.8253 48.6828C16.5707 48.2792 16.4989 47.8505 16.7535 47.399C17.4977 46.0761 18.2309 44.7455 18.9697 43.4193C19.0012 43.354 19.0447 43.2963 19.0839 43.2365Z" fill="url(#paint2_linear_2_74)"></path><defs><linearGradient id="paint0_linear_2_74" x1="0.000110564" y1="27.9171" x2="62.4789" y2="27.9171" gradientUnits="userSpaceOnUse"><stop stop-color="#898ABC"></stop><stop offset="1" stop-color="#7DCCCD"></stop></linearGradient><linearGradient id="paint1_linear_2_74" x1="37.542" y1="48.0061" x2="49.5714" y2="48.0061" gradientUnits="userSpaceOnUse"><stop stop-color="#898ABC"></stop><stop offset="0.2" stop-color="#859FC1"></stop><stop offset="0.5" stop-color="#81B8C8"></stop><stop offset="0.78" stop-color="#7EC7CC"></stop><stop offset="1" stop-color="#7DCCCD"></stop></linearGradient><linearGradient id="paint2_linear_2_74" x1="16.5914" y1="49.0679" x2="29.4945" y2="49.0679" gradientUnits="userSpaceOnUse"><stop stop-color="#898ABC"></stop><stop offset="0.93" stop-color="#7EC7CC"></stop><stop offset="1" stop-color="#7DCCCD"></stop></linearGradient></defs></svg> 