<?xml version="1.0" encoding="UTF-8"?> <svg xmlns="http://www.w3.org/2000/svg" width="200" height="55" viewBox="0 0 200 55" fill="none"><path d="M39.5634 31.1701C40.2009 34.2577 41.6892 36.9362 43.6236 39.4135C42.1386 41.0563 40.3522 42.2258 38.3938 43.1658C34.9407 44.8206 31.3069 45.111 27.5644 44.6617C24.6433 44.3114 22.1997 42.8699 19.8323 41.2728C19.6148 41.1281 19.4853 40.7157 19.482 40.4263C19.4581 38.5409 19.1665 36.7121 18.4637 34.9572C18.3754 34.7436 18.2522 34.5462 18.0992 34.373C18.888 42.2302 15.9712 48.0257 8.58512 51.4875C9.23789 52.1011 9.81341 52.6397 10.39 53.1717C10.8687 53.6123 11.0994 54.1508 11.119 54.8917H10.5684C8.08466 54.8917 5.60087 54.8797 3.11709 54.9091C2.44038 54.9178 2.00085 54.6393 1.73866 54.0627C0.943365 52.3143 0.0991138 50.5464 0.0153417 48.6088C-0.0575509 46.9377 0.14481 45.2514 0.296035 43.5781C0.318881 43.3203 0.678993 43.0124 0.956421 42.8731C2.07157 42.3128 3.215 41.8124 4.34756 41.2869C5.29298 40.8517 6.00668 40.1326 6.64422 39.3286C7.02717 38.8466 7.40578 38.3614 7.75175 37.8512C7.86816 37.6793 7.96934 37.3986 7.9095 37.2169C6.82155 33.6375 7.90189 30.5162 9.88957 27.5722C10.9645 25.9795 12.1949 24.5488 13.915 23.6088C15.5262 22.7265 17.2757 22.4317 19.0708 22.6297C21.0661 22.8472 23.0461 23.2215 25.0316 23.5294C25.122 23.5534 25.2104 23.5844 25.296 23.6219L23.5945 27.4602L23.7033 27.557C23.8182 27.4803 23.9273 27.3952 24.0297 27.3024C26.5167 24.6663 28.5294 21.6886 30.367 18.576C31.4147 16.8026 32.4449 15.0162 33.8973 13.5094C35.6707 11.6697 37.7422 11.1942 40.1552 11.8894C40.7144 12.0515 41.3019 12.1125 41.8764 12.2158C41.8938 12.1669 41.9101 12.1179 41.9264 12.07L39.5329 10.3511C40.2945 9.52096 41.0332 8.73002 41.7621 7.93255C43.8463 5.63416 46.2511 3.6485 48.9023 2.03695C49.8206 1.48319 50.9422 1.22317 52.0041 0.966413C52.9288 0.742296 53.6055 1.2928 54.0712 2.05436C54.8697 3.36752 55.5943 4.72963 56.4473 6.00471C56.8824 6.65748 57.5113 7.17643 58.0792 7.72258C58.497 8.12186 58.9952 8.43845 59.4065 8.84425C60.1681 9.59385 60.1594 10.5056 59.4609 11.3139C59.1432 11.6795 58.8538 12.0689 58.4991 12.5161C58.8723 12.6249 59.1758 12.7152 59.4783 12.8131C60.0593 13.0024 60.3073 13.3636 60.1202 13.9272C59.8395 14.7758 60.0984 15.4655 60.5325 16.1825C61.194 17.278 61.7847 18.4149 62.4908 19.6748L58.3806 19.2244L58.3349 19.381L61.4899 20.84C60.823 22.7744 60.6391 23.7492 58.1793 23.9047C57.6353 23.9396 57.0913 23.9776 56.5539 24.044C55.7586 24.1408 55.2059 23.8264 54.7805 23.1584C53.9102 21.7908 52.7493 20.7138 51.3763 19.8608C51.2839 19.8032 51.187 19.752 51.0902 19.7052C51.0456 19.6824 50.9945 19.6715 50.7714 19.5965C51.4547 20.5408 52.0389 21.3655 52.6395 22.1792C54.1728 24.2446 55.5417 26.4272 56.7334 28.7069C57.9876 31.1544 58.9487 33.7413 59.5969 36.414C60.39 39.5908 61.2049 42.7654 61.8707 45.9705C62.4256 48.6371 62.0502 51.2743 61.1091 53.8233C60.7556 54.7764 60.5554 54.8917 59.5392 54.8917H51.6483C50.8541 54.8917 50.7323 54.7579 50.568 53.9963C50.4309 53.3642 50.2166 52.7484 50.0142 52.0456C50.3754 51.9444 50.7279 51.8085 51.0935 51.753C51.855 51.6442 51.9736 51.5354 52.0302 50.7673C52.1438 49.2016 51.7588 47.6401 50.9303 46.3067C50.4951 45.5799 49.9718 44.9022 49.479 44.2091C48.6086 42.9885 48.2409 41.6525 48.4672 40.1554C48.6108 39.2046 48.3584 38.7716 47.4488 38.4463C45.5417 37.7652 43.7977 36.8143 42.4921 35.2401C41.723 34.3142 41.1061 33.2622 40.425 32.2602C40.1683 31.8805 39.9376 31.4823 39.6961 31.0928L39.5634 31.1701Z" fill="url(#paint0_linear_2_73)"></path><path d="M36.9121 45.939C37.6736 45.5299 38.4178 45.1317 39.1598 44.7226C40.189 44.1547 41.2399 43.6205 42.2321 42.9939C42.9469 42.5424 43.5845 41.9679 44.2514 41.4403C44.8182 40.9921 45.1489 40.9964 45.6853 41.4631C46.3479 42.0397 46.7983 42.7339 46.9713 43.6097C47.0274 43.8374 47.137 44.0485 47.2911 44.2254C47.7002 44.7248 47.7894 45.2742 47.5544 45.8574C47.0938 46.9968 46.6162 48.129 46.1216 49.2539C45.4285 50.8249 44.6996 52.3807 44.0077 53.9528C43.7172 54.6121 43.2744 54.9102 42.5346 54.8993C40.5589 54.8699 38.5832 54.8852 36.6074 54.9058C36.2397 54.9058 36.0983 54.7862 36.0461 54.4315C35.9373 53.7189 35.7915 53.0117 35.6522 52.2556C36.1625 52.1468 36.6314 52.0228 37.1101 51.9379C37.4267 51.8824 37.554 51.7203 37.6149 51.4092C37.8999 49.9426 37.6736 48.525 37.2646 47.1183C37.1579 46.7386 37.0415 46.36 36.9121 45.939Z" fill="url(#paint1_linear_2_73)"></path><path d="M19.0839 43.2365C20.2491 43.8153 21.3501 44.4028 22.4848 44.913C23.3225 45.2895 24.1994 45.5832 25.0709 45.8802C25.6029 46.0608 25.9848 46.3154 26.1316 46.9149C26.4678 48.2835 26.8562 49.6402 27.2196 51.0034C27.3904 51.6485 27.7015 52.1348 28.3739 52.3949C29.353 52.7713 29.6957 53.5514 29.3889 54.4848C29.3019 54.7514 29.1801 54.9004 28.8559 54.8993C26.482 54.8884 24.108 54.8993 21.7341 54.8993C21.0509 54.8993 20.5472 54.5175 20.2045 53.9942C19.0545 52.2393 17.9415 50.4594 16.8253 48.6828C16.5707 48.2792 16.4989 47.8505 16.7535 47.399C17.4977 46.0761 18.2309 44.7455 18.9697 43.4193C19.0012 43.354 19.0447 43.2963 19.0839 43.2365Z" fill="url(#paint2_linear_2_73)"></path><path d="M174.444 45.681C174.444 48.1238 174.444 50.4236 174.444 52.7189C174.444 54.1582 174.157 54.4397 172.72 54.442C170.45 54.442 168.18 54.4261 165.91 54.442C164.865 54.442 164.391 54.022 164.393 52.9573C164.407 44.3726 164.407 35.7895 164.393 27.2079C164.393 26.1227 164.886 25.7413 165.921 25.7435C172.537 25.7617 179.154 25.7617 185.772 25.7435C186.828 25.7435 187.298 26.1976 187.289 27.2419C187.273 29.0195 187.289 30.7972 187.289 32.5748C187.275 33.778 186.932 34.1254 185.715 34.1299C182.464 34.1458 179.211 34.1299 175.953 34.1299H174.523V37.2107C174.911 37.2288 175.311 37.2674 175.71 37.2674C178.734 37.2674 181.758 37.2674 184.791 37.2674C186.138 37.2674 186.453 37.5921 186.46 38.9451C186.471 40.6463 186.471 42.3475 186.46 44.0487C186.449 45.3496 186.156 45.6379 184.835 45.6379C181.811 45.6379 178.787 45.6379 175.753 45.6379L174.444 45.681Z" fill="white"></path><path d="M195.319 23.807C196.413 23.807 197.507 23.8297 198.602 23.807C199.417 23.7866 199.803 24.193 199.814 24.9558C199.834 26.545 199.832 28.1341 199.814 29.7074C199.814 30.527 199.36 30.9811 198.54 30.9879C196.315 31.006 194.088 31.0083 191.863 30.9879C191.105 30.9879 190.665 30.5338 190.653 29.7687C190.631 28.1455 190.628 26.5223 190.653 24.9013C190.667 24.202 191.035 23.7979 191.804 23.8138C192.969 23.8252 194.138 23.807 195.319 23.807Z" fill="white"></path><path d="M99.0025 29.6348C99.0161 28.091 99.0025 26.5449 99.0025 24.9989C99.0025 24.1475 99.3953 23.7729 100.258 23.7979C101.393 23.8342 102.528 23.7979 103.65 23.7979C104.744 23.7979 105.838 23.8184 106.93 23.7979C107.75 23.7775 108.12 24.1861 108.127 24.9535C108.14 26.5427 108.127 28.1319 108.127 29.7052C108.127 30.5315 107.661 30.9697 106.858 30.9788C104.671 30.9992 102.485 30.9947 100.299 30.9788C99.4361 30.9788 98.9957 30.527 99.0025 29.6348Z" fill="url(#paint3_linear_2_73)"></path><path d="M108.336 34.7452C108.345 40.7886 108.345 46.8329 108.336 52.8778C108.336 54.0879 107.986 54.4443 106.801 54.4511C104.61 54.4647 102.419 54.4511 100.217 54.4511C99.2273 54.4511 98.771 54.0129 98.7778 53.0095C98.7959 49.9492 98.7778 46.8798 98.7778 43.8285C98.7778 40.8454 98.7778 37.8615 98.7778 34.8769C98.7778 33.4852 99.0638 33.1878 100.408 33.181C102.527 33.1688 104.646 33.1688 106.765 33.181C107.97 33.1991 108.333 33.5556 108.336 34.7452Z" fill="url(#paint4_linear_2_73)"></path><path d="M121.549 26.9082C121.549 35.5715 121.549 44.2349 121.549 52.8982C121.549 54.1106 121.208 54.4443 119.996 54.4511C117.839 54.4647 115.683 54.4647 113.528 54.4511C112.343 54.4511 112.007 54.0901 112.004 52.8619C112.004 48.5484 112.004 44.2349 112.004 39.9214C112.004 35.6457 112.004 31.3708 112.004 27.0966C112.004 25.655 112.279 25.3871 113.732 25.3826C115.812 25.3826 117.892 25.3826 119.973 25.3826C121.222 25.3962 121.546 25.6981 121.549 26.9082Z" fill="url(#paint5_linear_2_73)"></path><path d="M160.45 41.2654C160.363 36.7112 158.014 33.9755 153.53 33.0311C152.939 32.9014 152.341 32.8074 151.739 32.7496C148.045 32.4272 144.474 32.7337 141.307 34.929C140.122 35.7486 139.227 36.8066 138.823 38.2073C138.514 39.2789 138.837 39.7012 139.958 39.7171C141.509 39.7375 143.059 39.7171 144.61 39.7171C146.002 39.7171 147.432 39.9214 148.506 38.6886C148.683 38.5449 148.9 38.4607 149.128 38.448C149.92 38.3299 150.433 38.5955 150.59 39.4605C150.74 40.2892 150.467 40.6592 149.611 40.6569C149.197 40.6885 148.785 40.7538 148.381 40.8522C145.693 41.2949 142.991 41.6944 140.58 43.0884C138.446 44.3189 137.195 46.0806 137.35 48.6369C137.506 51.2568 138.939 53.0049 141.268 54.0084C144.771 55.5181 148.043 55.2298 151.005 52.3715C151.203 54.3353 151.33 54.4488 153.196 54.4488C155.124 54.4488 157.056 54.4307 158.983 54.4488C160.039 54.4624 160.495 53.9811 160.491 52.9391C160.463 49.0569 160.525 45.1612 160.45 41.2654ZM147.8 48.5961C147.346 48.5098 146.755 48.0444 146.635 47.6312C146.54 47.3111 146.976 46.5733 147.341 46.4234C148.39 45.9966 149.523 45.7764 150.669 45.4608C150.685 47.6834 149.527 48.9162 147.8 48.5961V48.5961Z" fill="url(#paint6_linear_2_73)"></path><path d="M134.768 26.797C134.759 35.536 134.759 44.2743 134.768 53.0118C134.768 54.0107 134.328 54.467 133.331 54.4602C131.138 54.4443 128.943 54.4602 126.747 54.4602C125.567 54.4602 125.22 54.0902 125.217 52.871C125.208 48.5212 125.208 44.1713 125.217 39.8215C125.217 35.5837 125.217 31.3458 125.217 27.108C125.217 25.68 125.51 25.3985 126.954 25.3939C129.072 25.3939 131.19 25.4121 133.311 25.3939C134.305 25.3667 134.768 25.7844 134.768 26.797Z" fill="url(#paint7_linear_2_73)"></path><path d="M90.959 43.8013C91.3268 43.5062 91.6401 43.2564 91.9648 42.9953C97.2931 38.6137 96.2783 30.1774 90.0782 27.1829C88.0483 26.2336 85.8305 25.754 83.5897 25.7799C79.4276 25.7602 75.2654 25.7602 71.1032 25.7799C69.8637 25.7799 69.5549 26.0886 69.5549 27.3259C69.5549 35.8349 69.5549 44.3454 69.5549 52.8574C69.5549 54.1242 69.8955 54.4466 71.1782 54.4602C73.4098 54.4602 75.6415 54.4602 77.8732 54.4602C79.585 54.4602 79.7893 54.2604 79.7916 52.5918C79.7916 50.2897 79.7916 47.9899 79.7916 45.6697C80.9925 45.3224 81.6078 45.5993 82.0414 46.6823C82.8428 48.7255 83.8576 50.6689 84.6931 52.6962C85.2289 54.0039 86.0552 54.5351 87.4787 54.4829C89.783 54.3989 92.0942 54.4625 94.4007 54.4602C96.1557 54.4602 96.444 53.9721 95.6017 52.417C94.0648 49.5587 92.5232 46.7027 90.959 43.8013ZM84.6727 35.735C84.6204 36.8974 83.9916 37.6375 82.9086 37.6897C81.9347 37.7397 80.9562 37.7011 79.8506 37.7011V33.4103C80.9857 33.4103 82.0596 33.3354 83.1289 33.4307C84.1051 33.5192 84.7249 34.5477 84.6727 35.735V35.735Z" fill="url(#paint8_linear_2_73)"></path><path d="M190.451 43.7695C190.451 40.8181 190.451 37.8668 190.451 34.9154C190.451 33.4602 190.726 33.19 192.177 33.1855C194.259 33.1855 196.338 33.1741 198.42 33.1855C199.639 33.1855 199.989 33.5283 199.991 34.7384C200.003 40.7924 200.003 46.8465 199.991 52.9005C199.991 54.1128 199.641 54.4375 198.424 54.4443C196.268 54.4443 194.111 54.4261 191.954 54.4443C190.899 54.4579 190.435 54.0039 190.442 52.9505C190.465 49.8992 190.451 46.8344 190.451 43.7695Z" fill="white"></path><defs><linearGradient id="paint0_linear_2_73" x1="0.000110564" y1="27.9171" x2="62.4789" y2="27.9171" gradientUnits="userSpaceOnUse"><stop stop-color="#898ABC"></stop><stop offset="1" stop-color="#7DCCCD"></stop></linearGradient><linearGradient id="paint1_linear_2_73" x1="37.542" y1="48.0061" x2="49.5714" y2="48.0061" gradientUnits="userSpaceOnUse"><stop stop-color="#898ABC"></stop><stop offset="0.2" stop-color="#859FC1"></stop><stop offset="0.5" stop-color="#81B8C8"></stop><stop offset="0.78" stop-color="#7EC7CC"></stop><stop offset="1" stop-color="#7DCCCD"></stop></linearGradient><linearGradient id="paint2_linear_2_73" x1="16.5914" y1="49.0679" x2="29.4945" y2="49.0679" gradientUnits="userSpaceOnUse"><stop stop-color="#898ABC"></stop><stop offset="0.93" stop-color="#7EC7CC"></stop><stop offset="1" stop-color="#7DCCCD"></stop></linearGradient><linearGradient id="paint3_linear_2_73" x1="88.137" y1="46.5733" x2="109.023" y2="20.5424" gradientUnits="userSpaceOnUse"><stop stop-color="#898ABC"></stop><stop offset="0.2" stop-color="#859FC1"></stop><stop offset="0.5" stop-color="#81B8C8"></stop><stop offset="0.78" stop-color="#7EC7CC"></stop><stop offset="1" stop-color="#7DCCCD"></stop></linearGradient><linearGradient id="paint4_linear_2_73" x1="96.1738" y1="53.0231" x2="117.06" y2="26.9899" gradientUnits="userSpaceOnUse"><stop stop-color="#898ABC"></stop><stop offset="0.2" stop-color="#859FC1"></stop><stop offset="0.5" stop-color="#81B8C8"></stop><stop offset="0.78" stop-color="#7EC7CC"></stop><stop offset="1" stop-color="#7DCCCD"></stop></linearGradient><linearGradient id="paint5_linear_2_73" x1="102.308" y1="57.945" x2="123.195" y2="31.9141" gradientUnits="userSpaceOnUse"><stop stop-color="#898ABC"></stop><stop offset="0.2" stop-color="#859FC1"></stop><stop offset="0.5" stop-color="#81B8C8"></stop><stop offset="0.78" stop-color="#7EC7CC"></stop><stop offset="1" stop-color="#7DCCCD"></stop></linearGradient><linearGradient id="paint6_linear_2_73" x1="125.086" y1="76.2184" x2="145.972" y2="50.1875" gradientUnits="userSpaceOnUse"><stop stop-color="#898ABC"></stop><stop offset="0.2" stop-color="#859FC1"></stop><stop offset="0.5" stop-color="#81B8C8"></stop><stop offset="0.78" stop-color="#7EC7CC"></stop><stop offset="1" stop-color="#7DCCCD"></stop></linearGradient><linearGradient id="paint7_linear_2_73" x1="110.342" y1="64.3926" x2="131.229" y2="38.3595" gradientUnits="userSpaceOnUse"><stop stop-color="#898ABC"></stop><stop offset="0.2" stop-color="#859FC1"></stop><stop offset="0.5" stop-color="#81B8C8"></stop><stop offset="0.78" stop-color="#7EC7CC"></stop><stop offset="1" stop-color="#7DCCCD"></stop></linearGradient><linearGradient id="paint8_linear_2_73" x1="81.7803" y1="41.4743" x2="102.667" y2="15.4434" gradientUnits="userSpaceOnUse"><stop stop-color="#898ABC"></stop><stop offset="0.2" stop-color="#859FC1"></stop><stop offset="0.5" stop-color="#81B8C8"></stop><stop offset="0.78" stop-color="#7EC7CC"></stop><stop offset="1" stop-color="#7DCCCD"></stop></linearGradient></defs></svg> 